<svg width="36" height="32" viewBox="0 0 36 32" fill="none" xmlns="http://www.w3.org/2000/svg">
<path d="M5.92677 11.5262C6.21813 11.5179 6.50712 11.5812 6.76828 11.7106L9.26978 13.1574C9.50717 13.3237 9.70547 13.5399 9.85078 13.7907C9.99615 14.0416 10.085 14.3211 10.1113 14.6098V17.4917C10.0843 17.7803 9.99506 18.0595 9.84979 18.3103C9.70453 18.561 9.50662 18.7773 9.26978 18.9442L6.76828 20.3909C6.50653 20.5181 6.21764 20.5795 5.92677 20.5696C5.63763 20.5809 5.35027 20.5195 5.091 20.3909L2.58375 18.9442C2.34691 18.7773 2.14905 18.561 2.00379 18.3103C1.85848 18.0595 1.76928 17.7803 1.74224 17.4917V14.6098C1.76853 14.3211 1.85739 14.0416 2.00275 13.7907C2.14806 13.5399 2.34637 13.3237 2.58375 13.1574L5.091 11.7106C5.34973 11.5801 5.63713 11.5167 5.92677 11.5262ZM5.92677 10.3735C5.43477 10.3644 4.94861 10.4815 4.51465 10.7135L2.0074 12.1775C1.59583 12.4464 1.25321 12.8081 1.00691 13.2336C0.760662 13.659 0.617677 14.1364 0.589497 14.6271V17.509C0.617677 17.9998 0.760662 18.4772 1.00691 18.9026C1.25321 19.328 1.59583 19.6898 2.0074 19.9587L4.51465 21.4053C4.94915 21.6355 5.43526 21.7505 5.92677 21.7397C6.4201 21.7503 6.90799 21.6352 7.34467 21.4053L9.84618 19.9587C10.2577 19.6898 10.6004 19.328 10.8466 18.9026C11.0929 18.4772 11.2359 17.9998 11.264 17.509V14.6271C11.2359 14.1364 11.0929 13.659 10.8466 13.2336C10.6004 12.8081 10.2577 12.4464 9.84618 12.1775L7.34467 10.7308C6.90844 10.4992 6.42055 10.3822 5.92677 10.3908V10.3735Z" fill="#424242"/>
<path d="M17.6792 11.5262C17.9687 11.518 18.2558 11.5813 18.5149 11.7107L21.0222 13.1574C21.258 13.325 21.4547 13.5415 21.599 13.7922C21.7433 14.0429 21.8316 14.3218 21.8579 14.6099V17.4918C21.8308 17.7796 21.7422 18.0583 21.598 18.3089C21.4538 18.5595 21.2574 18.7762 21.0222 18.9443L18.5149 20.391C18.2552 20.5182 17.9682 20.5795 17.6792 20.5697C17.3883 20.5795 17.0994 20.5182 16.8377 20.391L14.3304 18.9443C14.0952 18.7762 13.8988 18.5595 13.7546 18.3089C13.6104 18.0583 13.5218 17.7796 13.4947 17.4918V14.6099C13.521 14.3218 13.6093 14.0429 13.7536 13.7922C13.8978 13.5415 14.0946 13.325 14.3304 13.1574L16.8377 11.7107C17.0988 11.5813 17.3878 11.5179 17.6792 11.5262ZM17.6792 10.3735C17.1854 10.365 16.6975 10.482 16.2613 10.7136L13.754 12.1776C13.3433 12.4468 13.0015 12.8086 12.7562 13.2341C12.5109 13.6596 12.369 14.1368 12.3419 14.6272V17.5091C12.369 17.9995 12.5109 18.4767 12.7562 18.9021C13.0015 19.3276 13.3433 19.6895 13.754 19.9587L16.2613 21.4054C16.6979 21.6352 17.1859 21.7503 17.6792 21.7397C18.1707 21.7506 18.6568 21.6355 19.0913 21.4054L21.5986 19.9587C22.0093 19.6895 22.3512 19.3276 22.5964 18.9021C22.8417 18.4767 22.9836 17.9995 23.0107 17.5091V14.6272C22.9836 14.1368 22.8417 13.6596 22.5964 13.2341C22.3512 12.8086 22.0093 12.4468 21.5986 12.1776L19.0913 10.7308C18.6574 10.4988 18.1712 10.3817 17.6792 10.3908V10.3735Z" fill="#424242"/>
<path d="M29.4259 11.5262C29.7172 11.5179 30.0062 11.5812 30.2674 11.7106L32.7689 13.1574C33.0063 13.3237 33.2046 13.5399 33.3499 13.7907C33.4952 14.0416 33.5841 14.3211 33.6104 14.6098V17.4917C33.5834 17.7803 33.4941 18.0595 33.3489 18.3103C33.2036 18.561 33.0058 18.7773 32.7689 18.9442L30.2674 20.3909C30.0056 20.5181 29.7167 20.5795 29.4259 20.5696C29.1367 20.5809 28.8494 20.5195 28.5901 20.3909L26.0829 18.9442C25.846 18.7773 25.6481 18.561 25.5029 18.3103C25.3576 18.0595 25.2684 17.7803 25.2414 17.4917V14.6098C25.2676 14.3211 25.3565 14.0416 25.5018 13.7907C25.6472 13.5399 25.8455 13.3237 26.0829 13.1574L28.5901 11.7106C28.8489 11.5801 29.1362 11.5167 29.4259 11.5262ZM29.4259 10.3735C28.9339 10.3644 28.4477 10.4815 28.0137 10.7135L25.5065 12.1775C25.095 12.4464 24.7523 12.8081 24.506 13.2336C24.2598 13.659 24.1168 14.1364 24.0886 14.6271V17.509C24.1168 17.9998 24.2598 18.4772 24.506 18.9026C24.7523 19.328 25.095 19.6898 25.5065 19.9587L28.0137 21.4053C28.4482 21.6355 28.9344 21.7505 29.4259 21.7397C29.9192 21.7503 30.4071 21.6352 30.8438 21.4053L33.3453 19.9587C33.7568 19.6898 34.0995 19.328 34.3458 18.9026C34.592 18.4772 34.7349 17.9998 34.7631 17.509V14.6271C34.7349 14.1364 34.592 13.659 34.3458 13.2336C34.0995 12.8081 33.7568 12.4464 33.3453 12.1775L30.8438 10.7308C30.4076 10.4992 29.9197 10.3822 29.4259 10.3908V10.3735Z" fill="#424242"/>
<path d="M11.8001 21.7916C12.0935 21.7818 12.3847 21.8452 12.6475 21.976L15.1547 23.4228C15.3905 23.5903 15.5873 23.8068 15.7315 24.0576C15.8758 24.3083 15.9641 24.5872 15.9905 24.8752V27.7572C15.9626 28.0448 15.8737 28.3232 15.7296 28.5737C15.5854 28.8242 15.3894 29.041 15.1547 29.2096L12.6475 30.6679C12.3835 30.7856 12.0978 30.8465 11.8088 30.8465C11.5198 30.8465 11.2341 30.7856 10.9702 30.6679L8.46292 29.2211C8.22822 29.0525 8.03219 28.8357 7.88807 28.5852C7.74394 28.3347 7.65499 28.0563 7.62716 27.7687V24.8868C7.65351 24.5987 7.74186 24.3198 7.88608 24.0691C8.03036 23.8184 8.22713 23.6019 8.46292 23.4343L10.9702 21.9876C11.2293 21.8582 11.5164 21.7948 11.8059 21.8031L11.8001 21.7916ZM11.8059 20.6504C11.3144 20.6396 10.8283 20.7547 10.3938 20.9847L7.88653 22.4314C7.47566 22.7018 7.13387 23.0648 6.88861 23.4912C6.6434 23.9176 6.50151 24.3956 6.47442 24.8868V27.7687C6.50196 28.2589 6.64405 28.7359 6.88926 29.1614C7.13451 29.5867 7.4761 29.9487 7.88653 30.2183L10.3938 31.665C10.8283 31.895 11.3144 32.0101 11.8059 31.9993C12.2992 32.0098 12.7872 31.8948 13.2238 31.665L15.7311 30.2183C16.1415 29.9487 16.4831 29.5867 16.7283 29.1614C16.9736 28.7359 17.1157 28.2589 17.1432 27.7687V24.8868C17.1161 24.3956 16.9742 23.9176 16.729 23.4912C16.4838 23.0648 16.142 22.7018 15.7311 22.4314L13.2238 20.9732C12.7872 20.7434 12.2992 20.6283 11.8059 20.6389V20.6504Z" fill="#424242"/>
<path d="M23.5525 21.7915C23.8422 21.782 24.1296 21.8455 24.3883 21.976L26.8955 23.4227C27.133 23.5891 27.3312 23.8052 27.4766 24.0561C27.6219 24.307 27.7108 24.5865 27.737 24.8752V27.7571C27.7093 28.0454 27.6198 28.3244 27.4746 28.575C27.3293 28.8256 27.1319 29.0421 26.8955 29.2096L24.3883 30.6563C24.1279 30.7815 23.8414 30.8427 23.5525 30.8349C23.2619 30.8419 22.9737 30.7807 22.7111 30.6563L20.2095 29.2096C19.9732 29.0421 19.7757 28.8256 19.6305 28.575C19.4853 28.3244 19.3958 28.0454 19.368 27.7571V24.8752C19.3943 24.5865 19.4832 24.307 19.6285 24.0561C19.7739 23.8052 19.9721 23.5891 20.2095 23.4227L22.7111 21.976C22.9722 21.8466 23.2611 21.7833 23.5525 21.7915ZM23.5525 20.6388C23.0592 20.6282 22.5713 20.7433 22.1347 20.9731L19.6331 22.4198C19.2215 22.6899 18.8789 23.0527 18.6326 23.4791C18.3864 23.9055 18.2435 24.3836 18.2152 24.8752V27.7571C18.2439 28.2478 18.387 28.7249 18.6333 29.1503C18.8795 29.5757 19.2219 29.9375 19.6331 30.2067L22.1347 31.6534C22.5713 31.8832 23.0592 31.9983 23.5525 31.9877C24.0441 31.9985 24.5302 31.8835 24.9647 31.6534L27.4719 30.2067C27.8831 29.9375 28.2256 29.5757 28.4718 29.1503C28.718 28.7249 28.8612 28.2478 28.8898 27.7571V24.8752C28.8616 24.3836 28.7187 23.9055 28.4725 23.4791C28.2262 23.0527 27.8836 22.6899 27.4719 22.4198L24.9647 20.9731C24.5302 20.743 24.0441 20.6279 23.5525 20.6388Z" fill="#424242"/>
<path d="M11.8002 1.26089C12.0916 1.25212 12.3807 1.31547 12.6417 1.44533L15.149 2.89206C15.3848 3.05961 15.5816 3.27614 15.7258 3.52684C15.8701 3.77755 15.9584 4.05649 15.9848 4.34453V7.22641C15.9577 7.51426 15.869 7.79295 15.7248 8.04355C15.5806 8.29416 15.3842 8.51084 15.149 8.67889L12.6475 10.1372C12.3836 10.2549 12.0978 10.3158 11.8088 10.3158C11.5199 10.3158 11.2341 10.2549 10.9703 10.1372L8.45721 8.71925C8.22196 8.5512 8.02558 8.33453 7.88141 8.08392C7.73719 7.83331 7.64853 7.55462 7.62144 7.26677V4.38485C7.64779 4.0968 7.73615 3.81791 7.88037 3.56721C8.02464 3.3165 8.22141 3.09992 8.45721 2.93242L10.9645 1.48569C11.2236 1.35633 11.5107 1.29293 11.8002 1.30125V1.26089ZM11.8002 0.148513C11.3082 0.1394 10.8221 0.256482 10.3881 0.488515L7.88082 1.93525C7.47004 2.20442 7.12825 2.56637 6.883 2.99185C6.63769 3.41734 6.4958 3.89448 6.4687 4.38485V7.26677C6.4958 7.75714 6.63769 8.23433 6.883 8.65982C7.12825 9.0853 7.47004 9.4472 7.88082 9.71638L10.3881 11.1631C10.8226 11.3932 11.3087 11.5083 11.8002 11.4974C12.2936 11.508 12.7815 11.3929 13.2181 11.1631L15.7254 9.71638C16.1362 9.4472 16.4779 9.0853 16.7233 8.65982C16.9685 8.23433 17.1104 7.75714 17.1375 7.26677V4.38485C17.1104 3.89448 16.9685 3.41734 16.7233 2.99185C16.4779 2.56637 16.1362 2.20442 15.7254 1.93525L13.2239 0.4482C12.7876 0.216661 12.2998 0.099629 11.806 0.108148L11.8002 0.148513Z" fill="#424242"/>
<path d="M23.5525 1.2609C23.8422 1.25134 24.1296 1.31478 24.3883 1.44534L26.8955 2.89202C27.133 3.05843 27.3312 3.27456 27.4766 3.52542C27.6219 3.77627 27.7108 4.0558 27.737 4.34449V7.22642C27.7101 7.51491 27.6208 7.79419 27.4755 8.0449C27.3303 8.29565 27.1324 8.51194 26.8955 8.67889L24.3883 10.1256C24.1291 10.2541 23.8417 10.3156 23.5525 10.3043C23.2617 10.3141 22.9728 10.2528 22.7111 10.1256L20.2095 8.71926C19.9727 8.5523 19.7748 8.33602 19.6295 8.08526C19.4843 7.83451 19.395 7.55528 19.368 7.26673V4.38486C19.3943 4.09612 19.4832 3.81664 19.6285 3.56578C19.7739 3.31493 19.9721 3.09879 20.2095 2.93238L22.7111 1.48565C22.9722 1.35624 23.2611 1.29294 23.5525 1.30121V1.2609ZM23.5525 0.148471C23.0587 0.139952 22.5708 0.256937 22.1347 0.488524L19.6331 1.93521C19.2216 2.20414 18.879 2.56588 18.6327 2.99132C18.3864 3.41675 18.2434 3.89405 18.2152 4.38486V7.26673C18.2434 7.75754 18.3864 8.23484 18.6327 8.66032C18.879 9.08576 19.2216 9.44745 19.6331 9.71638L22.1347 11.1631C22.5713 11.3929 23.0592 11.508 23.5525 11.4974C24.0441 11.5082 24.5302 11.3932 24.9647 11.1631L27.4719 9.71638C27.8834 9.44745 28.2261 9.08576 28.4724 8.66032C28.7187 8.23484 28.8617 7.75754 28.8898 7.26673V4.38486C28.8617 3.89405 28.7187 3.41675 28.4724 2.99132C28.2261 2.56588 27.8834 2.20414 27.4719 1.93521L24.9647 0.488524C24.5307 0.256441 24.0446 0.139407 23.5525 0.148471Z" fill="#424242"/>
</svg>
