<svg width="38" height="23" viewBox="0 0 38 23" fill="none" xmlns="http://www.w3.org/2000/svg">
<path d="M18.9998 22.8333C18.5554 22.8333 18.1387 22.7633 17.7498 22.6233C17.3609 22.4856 16.9998 22.25 16.6665 21.9167L1.2498 6.50001C0.63869 5.8889 0.347579 5.12445 0.376468 4.20668C0.403134 3.29112 0.722022 2.52779 1.33313 1.91667C1.94424 1.30556 2.72202 1.00001 3.66647 1.00001C4.61091 1.00001 5.38869 1.30556 5.9998 1.91667L18.9998 14.9167L32.0831 1.83334C32.6942 1.22223 33.4587 0.930008 34.3765 0.956674C35.292 0.985563 36.0554 1.30556 36.6665 1.91667C37.2776 2.52779 37.5831 3.30556 37.5831 4.25001C37.5831 5.19445 37.2776 5.97223 36.6665 6.58334L21.3331 21.9167C20.9998 22.25 20.6387 22.4856 20.2498 22.6233C19.8609 22.7633 19.4442 22.8333 18.9998 22.8333Z" fill="#F35330"/>
</svg>
