<svg width="136" height="136" viewBox="0 0 136 136" fill="none" xmlns="http://www.w3.org/2000/svg">
<rect width="136" height="136" transform="translate(136) rotate(90)" fill="white"/>
<g clip-path="url(#clip0_91_267)">
<path d="M31.8333 12H104.167C106.772 11.9975 109.352 12.5219 111.759 13.5433C114.167 14.5647 116.354 16.063 118.196 17.9524C120.039 19.8418 121.499 22.0853 122.495 24.5544C123.491 27.0235 124.002 29.6698 124 32.3419V103.658C124.002 106.33 123.491 108.976 122.495 111.446C121.499 113.915 120.039 116.158 118.196 118.048C116.354 119.937 114.167 121.435 111.759 122.457C109.352 123.478 106.772 124.003 104.167 124H31.8333C29.2281 124.003 26.6479 123.478 24.2406 122.457C21.8332 121.435 19.6458 119.937 17.8036 118.048C15.9614 116.158 14.5006 113.915 13.5047 111.446C12.5089 108.976 11.9976 106.33 12 103.658V32.3419C11.9976 29.6698 12.5089 27.0235 13.5047 24.5544C14.5006 22.0853 15.9614 19.8418 17.8036 17.9524C19.6458 16.063 21.8332 14.5647 24.2406 13.5433C26.6479 12.5219 29.2281 11.9975 31.8333 12Z" fill="#330000"/>
<path d="M66.2733 79.2H48.9133L45.3667 90.4478C45.327 90.6529 45.2141 90.8353 45.05 90.9593C44.886 91.0833 44.6827 91.1398 44.48 91.1179H35.7067C35.1933 91.1179 35.0533 90.8308 35.1933 90.2564L50.22 45.8872C50.36 45.4085 50.5 44.882 50.6867 44.3077C50.8745 43.2819 50.9682 42.2403 50.9667 41.1966C50.9527 41.0767 50.9834 40.9558 51.0526 40.8582C51.1219 40.7606 51.2245 40.6934 51.34 40.6701H63.4267C63.8 40.6701 63.9867 40.8137 64.0333 41.053L81.0667 90.3521C81.2067 90.8786 81.0667 91.1179 80.6 91.1179H70.8467C70.6817 91.1342 70.5164 91.0904 70.3799 90.9941C70.2433 90.8978 70.1442 90.7552 70.1 90.5914L66.2733 79.2ZM51.62 69.4837H63.4733C63.1933 68.4786 62.82 67.282 62.4 66.0376C61.98 64.7931 61.56 63.3573 61.14 61.9214C60.72 60.4855 60.2533 59.0017 59.7867 57.5179C59.32 56.0342 58.9 54.6461 58.5267 53.2581C58.1533 51.8701 57.8267 50.6735 57.5 49.5248H57.4067C56.9873 51.6109 56.4576 53.672 55.82 55.6991C55.12 57.9966 54.42 60.3897 53.6733 62.7829C53.02 65.2239 52.32 67.4735 51.62 69.4837ZM91.24 48.8547C90.474 48.8719 89.7123 48.7326 88.9993 48.445C88.2862 48.1574 87.6361 47.7272 87.0867 47.1795C86.0175 45.9805 85.448 44.4 85.5 42.7761C85.4724 41.9848 85.6078 41.1965 85.8973 40.4625C86.1868 39.7285 86.6238 39.0653 87.18 38.5162C88.3017 37.4288 89.79 36.8286 91.3333 36.841C93.1533 36.841 94.5533 37.4154 95.58 38.5162C96.6138 39.6768 97.1662 41.2048 97.12 42.7761C97.1485 43.5847 97.0186 44.3911 96.7381 45.1474C96.4575 45.9037 96.032 46.5947 95.4867 47.1795C94.9368 47.7539 94.2732 48.2007 93.5406 48.4897C92.808 48.7787 92.0235 48.9032 91.24 48.8547ZM86.0133 90.4V53.5453C86.0133 53.0667 86.2 52.8752 86.62 52.8752H95.86C96.28 52.8752 96.4667 53.1145 96.4667 53.5453V90.4C96.4667 90.9265 96.28 91.1658 95.86 91.1658H86.7133C86.6153 91.1741 86.5166 91.1596 86.4248 91.1233C86.333 91.087 86.2503 91.0299 86.183 90.9563C86.1157 90.8826 86.0655 90.7944 86.0361 90.698C86.0067 90.6017 85.9989 90.4998 86.0133 90.4Z" fill="#FF9A00"/>
</g>
<defs>
<clipPath id="clip0_91_267">
<rect x="12" y="12" width="112" height="112" rx="8" fill="white"/>
</clipPath>
</defs>
</svg>
