<svg width="136" height="136" viewBox="0 0 136 136" fill="none" xmlns="http://www.w3.org/2000/svg">
<rect width="136" height="136" transform="translate(136) rotate(90)" fill="white"/>
<g clip-path="url(#clip0_91_271)">
<path d="M31.8333 12.0115H104.167C115.133 12.0115 124 21.1036 124 32.3492V103.651C124 114.896 115.133 123.989 104.167 123.989H31.8333C20.8667 123.989 12 114.896 12 103.651V32.3492C12 21.1036 20.8667 12.0115 31.8333 12.0115Z" fill="#001E36"/>
<path d="M37.2 90.5389V41.2978C37.2 40.9628 37.34 40.7714 37.6667 40.7714C38.46 40.7714 39.2067 40.7714 40.28 40.7235C41.4 40.6757 42.5667 40.6757 43.8267 40.6278C45.0867 40.58 46.44 40.58 47.8867 40.5321C49.3333 40.4843 50.7333 40.4843 52.1333 40.4843C55.96 40.4843 59.1333 40.9628 61.7467 41.9677C64.08 42.7812 66.2267 44.1211 68 45.8917C69.4933 47.423 70.66 49.2893 71.4067 51.347C72.1067 53.3568 72.48 55.4145 72.48 57.5679C72.48 61.6833 71.5467 65.0809 69.68 67.7607C67.8133 70.4405 65.2 72.4503 62.1667 73.5988C58.9933 74.7952 55.4933 75.2258 51.6667 75.2258C50.5467 75.2258 49.8 75.2258 49.3333 75.178C48.8667 75.1301 48.2133 75.1301 47.3267 75.1301V90.4911C47.3733 90.8261 47.14 91.1132 46.8133 91.161H37.76C37.3867 91.161 37.2 90.9696 37.2 90.5389ZM47.3733 50.0071V66.0858C48.0267 66.1337 48.6333 66.1815 49.1933 66.1815H51.6667C53.4867 66.1815 55.3067 65.8944 57.0333 65.3202C58.5267 64.8895 59.8333 63.9803 60.86 62.784C61.84 61.5876 62.3067 59.9606 62.3067 57.8551C62.3533 56.3716 61.98 54.8881 61.2333 53.5961C60.44 52.3519 59.32 51.3948 57.9667 50.8684C56.24 50.1506 54.3733 49.8635 52.46 49.9114C51.2467 49.9114 50.1733 49.9114 49.2867 49.9592C48.3533 49.9114 47.7 49.9592 47.3733 50.0071ZM101.6 63.1668C100.2 62.4011 98.7067 61.8747 97.12 61.5398C95.3933 61.1569 93.6667 60.9177 91.8933 60.9177C90.96 60.8698 89.98 61.0134 89.0933 61.2526C88.4867 61.3962 87.9733 61.7312 87.6467 62.2097C87.4133 62.5925 87.2733 63.0711 87.2733 63.5018C87.2733 63.9324 87.46 64.3631 87.74 64.7459C88.16 65.2723 88.72 65.703 89.3267 66.038C90.4 66.6122 91.52 67.1386 92.64 67.6171C95.16 68.4785 97.5867 69.6748 99.8267 71.1105C101.367 72.1154 102.627 73.4553 103.513 75.0823C104.26 76.6136 104.633 78.2885 104.587 80.0112C104.633 82.2603 103.98 84.5094 102.767 86.3757C101.46 88.2898 99.64 89.7733 97.54 90.6347C95.2533 91.6396 92.4533 92.166 89.0933 92.166C86.9467 92.166 84.8467 91.9745 82.7467 91.5439C81.1133 91.2567 79.48 90.7304 77.9867 90.0126C77.66 89.8211 77.4267 89.4862 77.4733 89.1033V80.7768C77.4733 80.6333 77.52 80.4419 77.66 80.3462C77.8 80.2505 77.94 80.2983 78.08 80.394C79.9 81.4946 81.8133 82.2603 83.8667 82.7388C85.64 83.2174 87.5067 83.4566 89.3733 83.4566C91.1467 83.4566 92.4067 83.2174 93.2467 82.7867C93.9933 82.4517 94.5067 81.6382 94.5067 80.7768C94.5067 80.1069 94.1333 79.4848 93.3867 78.8627C92.64 78.2406 91.1 77.5228 88.8133 76.6136C86.4333 75.7522 84.24 74.6038 82.1867 73.1681C80.74 72.1154 79.5267 70.7276 78.64 69.1006C77.8933 67.5693 77.52 65.8944 77.5667 64.2196C77.5667 62.1619 78.1267 60.1999 79.1533 58.4293C80.32 56.5152 82.0467 54.9838 84.0533 54.0268C86.2467 52.8783 89 52.3519 92.3133 52.3519C94.2267 52.3519 96.1867 52.4955 98.1 52.7826C99.5 52.974 100.853 53.3568 102.113 53.8832C102.3 53.9311 102.487 54.1225 102.58 54.3139C102.627 54.5053 102.673 54.6967 102.673 54.8881V62.6882C102.673 62.8797 102.58 63.0711 102.44 63.1668C102.02 63.2625 101.787 63.2625 101.6 63.1668Z" fill="#31A8FF"/>
</g>
<defs>
<clipPath id="clip0_91_271">
<rect x="12" y="12" width="112" height="112" rx="8" fill="white"/>
</clipPath>
</defs>
</svg>
