<svg width="136" height="136" viewBox="0 0 136 136" fill="none" xmlns="http://www.w3.org/2000/svg">
<rect width="136" height="136" transform="translate(136) rotate(90)" fill="white"/>
<path d="M101.692 75.6073C98.761 75.6112 95.8696 76.282 93.236 77.5692C92.4114 76.1994 91.7746 74.7248 91.3428 73.185C91.0947 71.9781 91.0374 70.7396 91.1728 69.5149C91.4577 68.1672 91.8273 66.8388 92.2794 65.5377C92.2627 65.3676 92.0761 64.5635 90.1996 64.5368C88.3231 64.5101 86.7066 64.8938 86.5333 65.3909C86.2074 66.299 85.9457 67.2288 85.7501 68.1736C84.197 72.0089 82.2854 75.6888 80.0406 79.164C78.783 77.1001 78.2657 74.6686 78.5741 72.2708C78.859 70.9231 79.2286 69.5948 79.6807 68.2937C79.664 68.1235 79.4774 67.3194 77.6009 67.2927C75.7244 67.266 74.1079 67.6497 73.9346 68.1469C73.7613 68.644 73.5413 69.8151 73.1513 70.9295C72.7614 72.0439 68.2085 82.227 67.0153 84.8528C66.402 86.1874 65.8721 87.2751 65.4988 88.0091C65.4811 88.0568 65.4588 88.1026 65.4321 88.1459L64.9222 89.1202L64.9222 89.1369C64.6655 89.5973 64.3922 90.0244 64.2556 90.0244C64.0172 89.0711 64.0287 88.0725 64.2889 87.125C64.9555 83.5916 66.5887 78.0997 66.572 77.9095C66.572 77.8061 66.8786 76.8518 65.5155 76.358C65.1993 76.2074 64.8443 76.1586 64.4993 76.2184C64.1542 76.2781 63.8362 76.4435 63.589 76.6917C63.469 76.6917 63.3857 76.982 63.3857 76.982C63.3857 76.982 64.8689 70.8061 60.556 70.8061C58.8764 71.1443 57.2814 71.8153 55.8648 72.7796C54.4481 73.744 53.2384 74.9822 52.3068 76.4214C51.1469 77.052 48.6772 78.4 46.0341 79.8514C45.0342 80.4152 43.9877 80.9791 43.0178 81.5196C42.9511 81.4529 42.8811 81.3661 42.8144 81.2994C37.565 75.7007 27.916 71.7503 28.3326 64.2598C28.4859 61.5306 29.4225 54.3638 46.8607 45.6588C61.2126 38.5787 72.6347 40.5406 74.6112 44.8914C77.4409 51.104 68.4918 62.6383 53.6633 64.3099C52.0229 64.6431 50.3286 64.6029 48.7057 64.1922C47.0828 63.7816 45.5729 63.0111 44.2876 61.9376C43.5044 61.0835 43.3844 61.0334 43.0944 61.2036C42.6178 61.4605 42.9244 62.2279 43.0944 62.6717C43.6601 63.6965 44.4252 64.5974 45.3446 65.3212C46.264 66.045 47.319 66.5769 48.4472 66.8857C54.2807 68.1476 60.3628 67.5442 65.8354 65.1607C74.8345 61.6807 81.8338 52.0048 79.7807 43.9005C77.7175 35.676 64.0823 32.9634 51.1769 37.5611C43.0936 40.2839 35.6246 44.5728 29.1958 50.1831C22.0866 56.8394 20.9633 62.6216 21.4233 65.0473C23.0898 73.6488 34.9252 79.2441 39.6614 83.3981C39.4474 83.5199 39.2319 83.6389 39.0148 83.7551C36.6451 84.9329 27.6127 89.6607 25.3496 94.6588C22.7932 100.331 25.7595 104.385 27.7193 104.932C30.6724 105.64 33.7725 105.406 36.5868 104.265C39.4011 103.124 41.7892 101.131 43.4177 98.5659C44.8044 96.4379 45.6568 94.0059 45.9023 91.4771C46.1478 88.9482 45.7791 86.3975 44.8276 84.042C44.8115 84.0039 44.7889 83.9689 44.7609 83.9386L46.6174 82.8476C47.7454 82.18 48.8878 81.537 50.0437 80.919C49.3498 82.9225 48.9425 85.014 48.8338 87.1316C48.5982 90.3773 49.5905 93.593 51.6135 96.1402C51.9214 96.4055 52.2787 96.607 52.6649 96.733C53.0511 96.859 53.4585 96.907 53.8633 96.8742C55.8631 96.8742 56.7797 95.206 57.7829 93.2241C59.0095 90.8018 60.116 87.9858 60.116 87.9858C60.116 87.9858 58.7361 95.5964 62.4858 95.5964C63.849 95.5964 65.2288 93.8213 65.8454 92.9271L65.8454 92.9438L65.9487 92.7737L66.1687 92.4167L66.1687 92.3833C66.7153 91.4291 67.9419 89.2603 69.765 85.6602C72.1181 81.0191 74.3845 75.2169 74.3845 75.2169C74.6032 76.4921 74.9049 77.7515 75.2878 78.9872C75.8368 80.4851 76.4859 81.9442 77.2309 83.3547C76.6843 84.1221 76.3443 84.5492 76.3443 84.5492L76.361 84.5659C75.9177 85.1464 75.4411 85.777 74.9112 86.3909C73.3345 88.1262 71.8715 89.9618 70.5316 91.8862C70.3325 92.2094 70.2641 92.5965 70.3403 92.9684C70.4164 93.3404 70.6315 93.6693 70.9416 93.8881C71.6432 94.2535 72.4429 94.3856 73.2247 94.2651C74.4027 94.1985 75.5611 93.9334 76.651 93.481C77.7043 93.11 78.6979 92.5873 79.6007 91.9295C80.5314 91.2841 81.2805 90.4098 81.7761 89.3907C82.2716 88.3717 82.497 87.2421 82.4304 86.1107C82.3256 84.6854 81.9619 83.2913 81.3572 81.9967C81.5272 81.7565 81.6905 81.5196 81.8505 81.2794C83.7454 78.448 85.4533 75.4955 86.9633 72.441C87.1819 73.7161 87.4836 74.9755 87.8665 76.2112C88.3193 77.5056 88.8766 78.761 89.533 79.9648C87.353 81.6438 85.636 83.8507 84.5435 86.3776C83.4703 89.4839 84.3035 90.8819 85.8767 91.2055C86.7375 91.2649 87.5983 91.0884 88.3665 90.695C89.4959 90.3234 90.5599 89.7762 91.5195 89.0735C92.5312 88.4757 93.3786 87.6356 93.9854 86.6286C94.5923 85.6216 94.9395 84.4793 94.9958 83.3047C94.9201 82.1321 94.6556 80.9795 94.2125 79.8914C97.0892 78.7664 100.208 78.4077 103.265 78.8504C111.377 79.8047 112.981 84.8728 112.674 87.0082C112.53 87.7652 112.226 88.4826 111.782 89.1122C111.338 89.7418 110.765 90.269 110.101 90.6583C109.538 91.0153 109.351 91.1354 109.401 91.3924C109.468 91.7694 109.734 91.7494 110.218 91.6826C111.44 91.3022 112.519 90.5597 113.312 89.5531C114.104 88.5464 114.573 87.3229 114.657 86.0439C114.914 81.0392 110.141 75.5506 101.702 75.6006L101.692 75.6073ZM39.0982 96.7208C36.4051 99.6569 32.6555 100.765 31.0356 99.8271C29.2958 98.8261 29.9791 94.4886 33.2854 91.379C35.2467 89.6116 37.3666 88.029 39.6181 86.6512C40.0114 86.4109 40.5913 86.0706 41.2846 85.6502L41.4712 85.5468L41.8812 85.2899C42.4719 87.2711 42.5255 89.3739 42.0364 91.3827C41.5473 93.3914 40.5332 95.2338 39.0982 96.7208ZM58.6995 83.3747C57.7629 85.6602 55.8031 91.5158 54.6099 91.1888C53.5867 90.9152 52.9434 86.4777 54.4066 82.0935C55.1454 79.983 56.2215 78.0065 57.5929 76.2413C59.0595 74.603 60.6793 74.0558 61.0692 74.7231C60.7135 77.7089 59.9148 80.6249 58.6995 83.3747ZM74.8745 91.1221C74.4812 91.3256 74.1079 91.4558 73.9379 91.3623C73.8179 91.2956 74.1079 91.0287 74.1079 91.0287C74.1079 91.0287 76.1377 88.8433 76.9376 87.8557C77.3976 87.2751 77.9375 86.5945 78.5241 85.8237L78.5241 86.0439C78.5241 88.6531 76.0011 90.4114 74.8778 91.1288L74.8745 91.1221ZM87.3532 88.2727C87.0633 88.0692 87.1132 87.3852 88.0865 85.2532C88.7632 83.8839 89.7086 82.6652 90.8662 81.6698C91.0437 82.1748 91.136 82.7059 91.1395 83.2413C91.1526 84.3808 90.7887 85.4927 90.1044 86.4034C89.42 87.3142 88.4539 87.9726 87.3566 88.2761L87.3532 88.2727Z" fill="#CD6799"/>
</svg>
