<svg width="136" height="136" viewBox="0 0 136 136" fill="none" xmlns="http://www.w3.org/2000/svg">
<rect width="136" height="136" transform="translate(136) rotate(90)" fill="white"/>
<path d="M33.6447 105.337L26 21.3334L110 21.3334L102.345 105.323L67.949 114.667L33.6447 105.337Z" fill="#E44F26"/>
<path d="M68.0024 107.524L95.7983 99.9745L102.337 28.2012L68.0024 28.2012L68.0024 107.524Z" fill="#F1662A"/>
<path d="M68.005 59.3541L54.0901 59.3541L53.1307 48.8041L68.005 48.8041L68.005 38.5007L41.6381 38.5007L41.8898 41.2674L44.4721 69.6574L68.005 69.6574L68.005 59.3541ZM68.005 86.1107L67.9574 86.1241L56.2471 83.0274L55.4986 74.8107L44.9416 74.8107L46.4147 90.9841L67.9574 96.8441L68.005 96.8307L68.005 86.1107Z" fill="#EBEBEB"/>
<path d="M67.9559 59.3541L67.9559 69.6574L80.9047 69.6574L79.6867 83.0207L67.9559 86.1207L67.9559 96.8407L89.5156 90.9841L89.6721 89.2441L92.1421 62.1207L92.4006 59.3541L67.9559 59.3541ZM67.9559 38.5007L67.9559 48.8041L93.3567 48.8041L93.5676 46.4907L94.0473 41.2674L94.2991 38.5007L67.9559 38.5007Z" fill="white"/>
</svg>
