<svg width="136" height="136" viewBox="0 0 136 136" fill="none" xmlns="http://www.w3.org/2000/svg">
<rect width="136" height="136" transform="translate(136) rotate(90)" fill="white"/>
<g clip-path="url(#clip0_91_261)">
<path d="M104.167 124H31.833C20.8659 124 12 114.907 12 103.659V32.3415C12 21.0933 20.8659 12 31.833 12H104.167C115.134 12 124 21.0933 124 32.3415V103.659C124 114.907 115.134 124 104.167 124Z" fill="#FF26BE"/>
<path d="M102.394 119.212H33.6078C24.276 119.212 16.6689 111.41 16.6689 101.839V34.1612C16.6689 24.5901 24.276 16.788 33.6078 16.788H102.349C111.73 16.788 119.288 24.5901 119.288 34.1612V101.793C119.333 111.41 111.726 119.212 102.394 119.212Z" fill="#2E001F"/>
<path d="M56.2837 64.4091L69.3518 90.1588C69.5848 90.5401 69.4459 90.9261 69.0696 90.9261H60.9473C60.4321 90.9261 60.1992 90.7837 59.9662 90.3058C56.9781 83.9879 53.9451 77.6699 50.8181 70.8741H50.724C47.924 77.2885 44.8417 84.0384 41.8581 90.3563C41.6251 90.7377 41.3921 90.8848 41.0158 90.8848H33.3237C32.8577 90.8848 32.8085 90.5034 33.0459 90.2139L45.8318 65.227L33.467 39.9552C33.1848 39.5738 33.467 39.2844 33.7448 39.2844H41.7729C42.2389 39.2844 42.427 39.3808 42.6107 39.8128C45.5496 46.1307 48.5377 52.6416 51.3377 59.0055H51.4318C54.1377 52.6876 57.1259 46.1307 60.02 39.8587C60.2529 39.4773 60.3918 39.2384 60.8622 39.2384H68.3752C68.747 39.2384 68.8904 39.5279 68.6574 39.9093L56.2837 64.4091ZM71.6411 72.2112C71.6411 61.0595 78.8763 52.3476 90.3541 52.3476C91.3352 52.3476 91.8459 52.3476 92.7822 52.4441V39.7622C92.7822 39.4727 93.0152 39.2844 93.2481 39.2844H100.622C100.994 39.2844 101.088 39.4268 101.088 39.6657V83.6065C101.088 84.8976 101.088 86.5242 101.321 88.2978C101.321 88.5873 101.227 88.6792 100.949 88.8263C97.0293 90.7423 92.9211 91.6016 89.0011 91.6016C78.8718 91.6429 71.6366 85.2331 71.6411 72.2112ZM92.7777 59.9613C92.1237 59.6718 91.1918 59.4834 90.0718 59.4834C84.1896 59.4834 80.0859 64.1242 80.0859 71.8344C80.0859 80.6428 84.2882 84.1854 89.5611 84.1854C90.6811 84.1854 91.8952 84.043 92.7822 83.657V59.9613H92.7777Z" fill="#FFD9F2"/>
</g>
<defs>
<clipPath id="clip0_91_261">
<rect x="12" y="12" width="112" height="112" rx="8" fill="white"/>
</clipPath>
</defs>
</svg>
