<svg width="136" height="136" viewBox="0 0 136 136" fill="none" xmlns="http://www.w3.org/2000/svg">
<rect width="136" height="136" transform="translate(136) rotate(90)" fill="white"/>
<path d="M68 68C68 63.8744 69.7209 59.9178 72.7839 57.0006C75.847 54.0834 80.0015 52.4445 84.3333 52.4445C88.6652 52.4445 92.8197 54.0834 95.8828 57.0006C98.9458 59.9178 100.667 63.8744 100.667 68C100.667 72.1256 98.9458 76.0822 95.8828 78.9995C92.8197 81.9167 88.6652 83.5556 84.3333 83.5556C80.0015 83.5556 75.847 81.9167 72.7839 78.9995C69.7209 76.0822 68 72.1256 68 68Z" fill="#1ABCFE"/>
<path d="M35.3333 99.1111C35.3333 94.9856 37.0542 91.0287 40.1173 88.1114C43.1804 85.1944 47.3348 83.5555 51.6667 83.5555H68V99.1111C68 103.237 66.2792 107.193 63.2161 110.111C60.153 113.027 55.9986 114.667 51.6667 114.667C47.3348 114.667 43.1804 113.027 40.1173 110.111C37.0542 107.193 35.3333 103.237 35.3333 99.1111Z" fill="#0ACF83"/>
<path d="M68 21.3334V52.4445H84.3333C88.6652 52.4445 92.8197 50.8056 95.8828 47.8884C98.9458 44.9711 100.667 41.0145 100.667 36.8889C100.667 32.7633 98.9458 28.8067 95.8828 25.8895C92.8197 22.9723 88.6652 21.3334 84.3333 21.3334H68Z" fill="#FF7262"/>
<path d="M35.3333 36.8889C35.3333 41.0145 37.0542 44.9711 40.1173 47.8884C43.1804 50.8056 47.3348 52.4445 51.6667 52.4445H68V21.3334H51.6667C47.3348 21.3334 43.1804 22.9723 40.1173 25.8895C37.0542 28.8067 35.3333 32.7633 35.3333 36.8889Z" fill="#F24E1E"/>
<path d="M35.3333 68C35.3333 72.1256 37.0542 76.0822 40.1173 78.9995C43.1804 81.9167 47.3348 83.5556 51.6667 83.5556H68V52.4445H51.6667C47.3348 52.4445 43.1804 54.0834 40.1173 57.0006C37.0542 59.9178 35.3333 63.8744 35.3333 68Z" fill="#A259FF"/>
</svg>
