<svg width="136" height="136" viewBox="0 0 136 136" fill="none" xmlns="http://www.w3.org/2000/svg">
<rect width="136" height="136" transform="translate(136) rotate(90)" fill="white"/>
<path d="M21.3334 21.3333L114.667 21.3332L114.667 114.667L21.3334 114.667L21.3334 21.3333Z" fill="#F7DF1E"/>
<path d="M45.8748 99.3285L53.0169 95.006C54.3951 97.4491 55.6485 99.5163 58.6552 99.5163C61.5373 99.5163 63.3547 98.389 63.3547 94.0038L63.3547 64.1816L72.1255 64.1816L72.1255 94.1277C72.1255 103.212 66.8004 107.347 59.0311 107.347C52.0147 107.347 47.9419 103.713 45.8744 99.3278M76.8895 98.3886L84.0309 94.2539C85.9111 97.324 88.3545 99.5794 92.677 99.5794C96.3116 99.5794 98.6289 97.7623 98.6289 95.2561C98.6289 92.249 96.2481 91.1837 92.2385 89.4301L90.0462 88.4895C83.7181 85.7963 79.5207 82.413 79.5207 75.2708C79.5207 68.6922 84.5326 63.6799 92.3642 63.6799C97.9402 63.6799 101.95 65.6224 104.832 70.6971L98.0021 75.083C96.4982 72.3891 94.87 71.3241 92.3639 71.3241C89.795 71.3241 88.1661 72.9531 88.1661 75.083C88.1661 77.7142 89.795 78.7799 93.5539 80.4088L95.7465 81.3484C103.202 84.5439 107.4 87.8015 107.4 95.1311C107.4 103.026 101.197 107.348 92.8648 107.348C84.7204 107.348 79.4576 103.464 76.8891 98.389" fill="black"/>
</svg>
