<svg width="36" height="36" viewBox="0 0 36 36" fill="none" xmlns="http://www.w3.org/2000/svg">
<path d="M18.333 0.5C8.66895 0.5 0.833008 8.33594 0.833008 18C0.833008 27.6641 8.66895 35.5 18.333 35.5C27.9971 35.5 35.833 27.6641 35.833 18C35.833 8.33594 27.9971 0.5 18.333 0.5ZM26.7432 13.6914C26.7549 13.875 26.7549 14.0664 26.7549 14.2539C26.7549 19.9883 22.3877 26.5938 14.4072 26.5938C11.9463 26.5938 9.66504 25.8789 7.74316 24.6484C8.09473 24.6875 8.43066 24.7031 8.79004 24.7031C10.8213 24.7031 12.6885 24.0156 14.1768 22.8516C12.2705 22.8125 10.6689 21.5625 10.1221 19.8438C10.79 19.9414 11.3916 19.9414 12.0791 19.7656C11.0976 19.5662 10.2153 19.0331 9.58229 18.257C8.94925 17.4808 8.60444 16.5094 8.60645 15.5078V15.4531C9.18066 15.7773 9.85645 15.9766 10.5635 16.0039C9.96911 15.6078 9.48167 15.0711 9.14438 14.4415C8.80709 13.8119 8.63036 13.1088 8.62988 12.3945C8.62988 11.5859 8.84082 10.8477 9.21973 10.207C10.3092 11.5482 11.6687 12.6451 13.2098 13.4264C14.751 14.2078 16.4393 14.6561 18.165 14.7422C17.5518 11.793 19.7549 9.40625 22.4033 9.40625C23.6533 9.40625 24.7783 9.92969 25.5713 10.7734C26.5518 10.5898 27.4893 10.2227 28.3252 9.73047C28.001 10.7344 27.3213 11.582 26.4189 12.1172C27.2939 12.0234 28.1377 11.7812 28.9189 11.4414C28.3291 12.3086 27.5908 13.0781 26.7432 13.6914Z" fill="#E1E1E1"/>
</svg>
